<svg xmlns="http://www.w3.org/2000/svg" width="2000" height="1310" viewBox="0 0 2000 1310"><rect width="100%" height="100%" fill="white"/>
<rect x="390" y="75" width="1540" height="1195" rx="8" fill="#fbfdff" stroke="#718096" stroke-width="4"/>
<text text-anchor="start" font-family="Microsoft YaHei,sans-serif" font-size="34" font-weight="700" fill="#142235"><tspan x="418" y="119.0">管理端管理用例分解图</tspan></text>
<polyline points="275,1021.8 360,1021.8 360,392.5 535,392.5 535,392.5" fill="none" stroke="#536579" stroke-width="3"/>
<polyline points="275,1021.8 360,1021.8 360,304.5 1225,304.5 1225,392.5" fill="none" stroke="#536579" stroke-width="3"/>
<polyline points="275,1021.8 360,1021.8 360,672.5 535,672.5 535,672.5" fill="none" stroke="#536579" stroke-width="3"/>
<polyline points="275,1021.8 360,1021.8 360,584.5 1225,584.5 1225,672.5" fill="none" stroke="#536579" stroke-width="3"/>
<polyline points="275,1021.8 360,1021.8 360,952.5 535,952.5 535,952.5" fill="none" stroke="#536579" stroke-width="3"/>
<polyline points="275,1021.8 360,1021.8 360,864.5 1225,864.5 1225,952.5" fill="none" stroke="#536579" stroke-width="3"/>
<ellipse cx="790" cy="392.5" rx="255" ry="68" fill="white" stroke="#2d5a7b" stroke-width="4"/>
<text text-anchor="middle" font-family="Microsoft YaHei,sans-serif" font-size="29" font-weight="400" fill="#142235"><tspan x="790" y="374.52">XYP-SRS-8.1.0</tspan><tspan x="790" y="411.64">管理员登录</tspan></text>
<ellipse cx="1480" cy="392.5" rx="255" ry="68" fill="white" stroke="#2d5a7b" stroke-width="4"/>
<text text-anchor="middle" font-family="Microsoft YaHei,sans-serif" font-size="29" font-weight="400" fill="#142235"><tspan x="1480" y="374.52">XYP-SRS-8.2.0</tspan><tspan x="1480" y="411.64">查看用户信息</tspan></text>
<ellipse cx="790" cy="672.5" rx="255" ry="68" fill="white" stroke="#2d5a7b" stroke-width="4"/>
<text text-anchor="middle" font-family="Microsoft YaHei,sans-serif" font-size="29" font-weight="400" fill="#142235"><tspan x="790" y="654.52">XYP-SRS-8.3.0</tspan><tspan x="790" y="691.64">查看任务列表</tspan></text>
<ellipse cx="1480" cy="672.5" rx="255" ry="68" fill="white" stroke="#2d5a7b" stroke-width="4"/>
<text text-anchor="middle" font-family="Microsoft YaHei,sans-serif" font-size="29" font-weight="400" fill="#142235"><tspan x="1480" y="654.52">XYP-SRS-8.4.0</tspan><tspan x="1480" y="691.64">查看交易记录</tspan></text>
<ellipse cx="790" cy="952.5" rx="255" ry="68" fill="white" stroke="#2d5a7b" stroke-width="4"/>
<text text-anchor="middle" font-family="Microsoft YaHei,sans-serif" font-size="29" font-weight="400" fill="#142235"><tspan x="790" y="934.52">XYP-SRS-8.5.0</tspan><tspan x="790" y="971.64">处理投诉</tspan></text>
<ellipse cx="1480" cy="952.5" rx="255" ry="68" fill="white" stroke="#2d5a7b" stroke-width="4"/>
<text text-anchor="middle" font-family="Microsoft YaHei,sans-serif" font-size="29" font-weight="400" fill="#142235"><tspan x="1480" y="934.52">XYP-SRS-8.6.0</tspan><tspan x="1480" y="971.64">查看操作日志</tspan></text>
<g stroke="#23364d" stroke-width="5" fill="none" stroke-linecap="round"><circle cx="185" cy="220.2" r="23" fill="white"/><path d="M185 243.2 L185 318.2 M142 273.2 L228 273.2 M185 318.2 L148 370.2 M185 318.2 L222 370.2"/></g>
<text text-anchor="middle" font-family="Microsoft YaHei,sans-serif" font-size="28" font-weight="700" fill="#142235"><tspan x="185" y="410.2">发布者</tspan></text>
<g stroke="#23364d" stroke-width="5" fill="none" stroke-linecap="round"><circle cx="185" cy="587.0" r="23" fill="white"/><path d="M185 610.0 L185 685.0 M142 640.0 L228 640.0 M185 685.0 L148 737.0 M185 685.0 L222 737.0"/></g>
<text text-anchor="middle" font-family="Microsoft YaHei,sans-serif" font-size="28" font-weight="700" fill="#142235"><tspan x="185" y="777.0">跑腿员</tspan></text>
<g stroke="#23364d" stroke-width="5" fill="none" stroke-linecap="round"><circle cx="185" cy="953.8000000000001" r="23" fill="white"/><path d="M185 976.8000000000001 L185 1051.8000000000002 M142 1006.8000000000001 L228 1006.8000000000001 M185 1051.8000000000002 L148 1103.8000000000002 M185 1051.8000000000002 L222 1103.8000000000002"/></g>
<text text-anchor="middle" font-family="Microsoft YaHei,sans-serif" font-size="28" font-weight="700" fill="#142235"><tspan x="185" y="1143.8000000000002">管理员</tspan></text>
</svg>