<svg xmlns="http://www.w3.org/2000/svg" width="2000" height="1040" viewBox="0 0 2000 1040"><rect width="100%" height="100%" fill="white"/>
<rect x="390" y="75" width="1540" height="925" rx="8" fill="#fbfdff" stroke="#718096" stroke-width="4"/>
<text text-anchor="start" font-family="Microsoft YaHei,sans-serif" font-size="34" font-weight="700" fill="#142235"><tspan x="418" y="119.0">积分与虚拟币管理用例分解图</tspan></text>
<polyline points="275,520.0 360,520.0 360,397.5 535,397.5 535,397.5" fill="none" stroke="#536579" stroke-width="3"/>
<polyline points="275,520.0 360,520.0 360,309.5 1225,309.5 1225,397.5" fill="none" stroke="#536579" stroke-width="3"/>
<polyline points="275,228.8 360,228.8 360,677.5 535,677.5 535,677.5" fill="none" stroke="#536579" stroke-width="3"/>
<polyline points="275,520.0 360,520.0 360,677.5 535,677.5 535,677.5" fill="none" stroke="#536579" stroke-width="3"/>
<polyline points="275,228.8 360,228.8 360,589.5 1225,589.5 1225,677.5" fill="none" stroke="#536579" stroke-width="3"/>
<ellipse cx="790" cy="397.5" rx="255" ry="68" fill="white" stroke="#2d5a7b" stroke-width="4"/>
<text text-anchor="middle" font-family="Microsoft YaHei,sans-serif" font-size="29" font-weight="400" fill="#142235"><tspan x="790" y="379.52">XYP-SRS-6.1.0</tspan><tspan x="790" y="416.64">报酬入账</tspan></text>
<ellipse cx="1480" cy="397.5" rx="255" ry="68" fill="white" stroke="#2d5a7b" stroke-width="4"/>
<text text-anchor="middle" font-family="Microsoft YaHei,sans-serif" font-size="29" font-weight="400" fill="#142235"><tspan x="1480" y="379.52">XYP-SRS-6.2.0</tspan><tspan x="1480" y="416.64">累计收益统计</tspan></text>
<ellipse cx="790" cy="677.5" rx="255" ry="68" fill="white" stroke="#2d5a7b" stroke-width="4"/>
<text text-anchor="middle" font-family="Microsoft YaHei,sans-serif" font-size="29" font-weight="400" fill="#142235"><tspan x="790" y="659.52">XYP-SRS-6.3.0</tspan><tspan x="790" y="696.64">交易明细查询</tspan></text>
<ellipse cx="1480" cy="677.5" rx="255" ry="68" fill="white" stroke="#2d5a7b" stroke-width="4"/>
<text text-anchor="middle" font-family="Microsoft YaHei,sans-serif" font-size="29" font-weight="400" fill="#142235"><tspan x="1480" y="659.52">XYP-SRS-6.4.0</tspan><tspan x="1480" y="696.64">余额校验</tspan></text>
<g stroke="#23364d" stroke-width="5" fill="none" stroke-linecap="round"><circle cx="185" cy="160.8" r="23" fill="white"/><path d="M185 183.8 L185 258.8 M142 213.8 L228 213.8 M185 258.8 L148 310.8 M185 258.8 L222 310.8"/></g>
<text text-anchor="middle" font-family="Microsoft YaHei,sans-serif" font-size="28" font-weight="700" fill="#142235"><tspan x="185" y="350.8">发布者</tspan></text>
<g stroke="#23364d" stroke-width="5" fill="none" stroke-linecap="round"><circle cx="185" cy="452.0" r="23" fill="white"/><path d="M185 475.0 L185 550.0 M142 505.0 L228 505.0 M185 550.0 L148 602.0 M185 550.0 L222 602.0"/></g>
<text text-anchor="middle" font-family="Microsoft YaHei,sans-serif" font-size="28" font-weight="700" fill="#142235"><tspan x="185" y="642.0">跑腿员</tspan></text>
<g stroke="#23364d" stroke-width="5" fill="none" stroke-linecap="round"><circle cx="185" cy="743.2" r="23" fill="white"/><path d="M185 766.2 L185 841.2 M142 796.2 L228 796.2 M185 841.2 L148 893.2 M185 841.2 L222 893.2"/></g>
<text text-anchor="middle" font-family="Microsoft YaHei,sans-serif" font-size="28" font-weight="700" fill="#142235"><tspan x="185" y="933.2">管理员</tspan></text>
</svg>